<svg xmlns="http://www.w3.org/2000/svg" xmlns:xlink="http://www.w3.org/1999/xlink" viewBox="0 0 512 512"><defs><linearGradient id="a" x1="99.5" x2="232.6" y1="30.7" y2="261.4" gradientUnits="userSpaceOnUse"><stop offset="0" stop-color="#f3f7fe"/><stop offset=".5" stop-color="#f3f7fe"/><stop offset="1" stop-color="#deeafb"/></linearGradient><linearGradient id="b" x1="112" x2="168" y1="91" y2="189" gradientUnits="userSpaceOnUse"><stop offset="0" stop-color="#fbbf24"/><stop offset=".5" stop-color="#fbbf24"/><stop offset="1" stop-color="#f59e0b"/></linearGradient><symbol id="s" viewBox="0 0 280 280"><circle cx="140" cy="140" r="57" fill="url(#b)" stroke="#f8af18" stroke-miterlimit="10" stroke-width="5"/><path fill="none" stroke="#fbbf24" stroke-linecap="round" stroke-miterlimit="10" stroke-width="17" d="M140 45V9m0 263v-36M207 73l26-26M47 233l26-26M73 73 47 47m186 186-26-26M9 140h36m227 0h-36"><animateTransform additive="sum" attributeName="transform" dur="6s" repeatCount="indefinite" type="rotate" values="0 140 140; 45 140 140"/></path></symbol><symbol id="c" viewBox="0 0 350 222"><path fill="url(#a)" stroke="#e6effc" stroke-miterlimit="10" stroke-width="6" d="m291 107-2.5.1A83.9 83.9 0 00135.6 43 56 56 0 0051 91a56.6 56.6 0 00.8 9A60 60 0 0063 219l4-.2v.2h224a56 56 0 000-112Z"/></symbol></defs><use xlink:href="#s" width="280" height="280" transform="translate(100 70)"/><use xlink:href="#c" width="190" height="120" transform="translate(250 315)"/></svg>
